<svg width="24" height="24" fill="none" xmlns="http://www.w3.org/2000/svg"><path d="M15.732 9.603a3.033 3.033 0 0 1-.921-1.81l-.47-3.597-3.186 1.734a3.033 3.033 0 0 1-2.006.318l-3.566-.665.665 3.566a3.033 3.033 0 0 1-.318 2.006L4.196 14.34l3.597.47c.69.091 1.33.416 1.808.922l2.495 2.633 1.558-3.274c.3-.63.806-1.137 1.435-1.437l3.276-1.558-2.633-2.493zm.03 6.49l-2.582 5.425a.7.7 0 0 1-1.14.18l-4.133-4.362a.7.7 0 0 0-.416-.212l-5.958-.78a.699.699 0 0 1-.524-1.027l2.872-5.278a.7.7 0 0 0 .072-.462l-1.1-5.907a.7.7 0 0 1 .817-.817l5.907 1.1a.7.7 0 0 0 .462-.072l5.278-2.872a.7.7 0 0 1 1.028.525l.779 5.957a.7.7 0 0 0 .212.416L21.7 12.04a.702.702 0 0 1-.181 1.14l-5.425 2.581a.7.7 0 0 0-.332.332zm.93 2.248l1.649-1.65 4.95 4.95-1.65 1.65-4.95-4.95z" fill="#fff"/></svg>