<svg width="111" height="22" fill="none" xmlns="http://www.w3.org/2000/svg"><path d="M91.125 10.552H86.87l.575 1.287h3.326c.394 0 .71.29.71.644v.452h-3.194c-1.171 0-2.126.866-2.126 1.932v.193c0 1.065.955 1.933 2.126 1.933h4.966v-4.51c0-1.065-.954-1.93-2.128-1.93zm.357 5.153h-2.838c-.393 0-.71-.29-.71-.645v-.193c0-.357.317-.645.71-.645h2.838v1.483zM100.382 12.935h-3.477v-2.383h-1.773v6.441h1.773v-2.772h3.477v2.772h1.774v-6.44h-1.774v2.382zM110.503 10.552h-2.076l-1.969 2.383h-.651v-2.383h-1.774v6.441h1.774v-2.772h.644l2.326 2.772H111l-3.199-3.413 2.702-3.028zM81.963 10.551h-2.679V9.264H83.6l.572-1.288h-6.663v9.017h4.454c1.613 0 2.923-1.187 2.923-2.653v-1.135c0-1.468-1.311-2.654-2.923-2.654zm1.148 3.788c0 .753-.675 1.366-1.502 1.366h-2.326V11.84h2.326c.827 0 1.502.611 1.502 1.363v1.137zM45.695 12.483v2.577c0 .355-.319.646-.71.646h-.213v1.286h.567c1.173 0 2.128-.868 2.128-1.933v-2.576c0-.355.32-.645.71-.645h2.481v5.154h1.774v-6.44h-4.61c-1.173 0-2.127.866-2.127 1.931zM31.992 11.839h3.264l.574-1.287h-4.192c-1.175 0-2.128.866-2.128 1.931v2.577c0 1.065.954 1.933 2.128 1.933h4.192l-.574-1.287h-3.264c-.391 0-.71-.29-.71-.645v-2.577c0-.356.32-.645.71-.645zM41.72 10.552h-2.837c-1.174 0-2.126.866-2.126 1.931v2.577c0 1.065.953 1.933 2.126 1.933h2.837c1.174 0 2.129-.868 2.129-1.933v-2.577c0-1.065-.955-1.93-2.129-1.93zm.353 4.508c0 .355-.316.645-.708.645h-2.128c-.388 0-.708-.29-.708-.645v-2.577c0-.355.32-.644.708-.644h2.128c.392 0 .708.29.708.644v2.577zM25.964 10.552h-2.839c-.12 0-.236.01-.351.029.029-.732.688-1.317 1.501-1.317h2.391l.575-1.288h-3.32c-1.615 0-2.923 1.186-2.923 2.651v4.432c0 1.065.955 1.933 2.127 1.933h2.839c1.173 0 2.126-.868 2.126-1.933v-2.577c0-1.064-.953-1.93-2.126-1.93zm.354 4.508c0 .355-.32.645-.71.645h-2.129c-.39 0-.708-.29-.708-.645V12.48c.003-.353.32-.641.708-.641h2.129c.39 0 .71.29.71.644v2.576zM65.991 11.839h2.204v5.154h1.774V11.84h2.482v-1.287h-7.033l.573 1.287zM62.527 10.552h-2.836c-1.173 0-2.127.866-2.127 1.931v.452h-1.487v-2.383h-1.771v6.441h1.771v-2.771h1.487v.839c0 1.065.954 1.933 2.127 1.933h2.836c1.174 0 2.128-.868 2.128-1.933v-2.577c0-1.066-.954-1.932-2.128-1.932zm.354 4.508c0 .355-.317.645-.71.645h-2.127c-.39 0-.707-.29-.707-.645v-2.577c0-.355.318-.644.707-.644h2.128c.392 0 .709.29.709.644v2.577zM14.204 7.976l-4.023 9.017h2.187l.759-1.932h4.308l.778 1.932h2.116l-4.023-9.017h-2.102zm-.57 5.796l1.622-4.12 1.662 4.12h-3.285zM3.532 16.977L0 17.005l4.102 3.725c.76.691 2.259 1.252 3.33 1.25l3.58.02-4.15-3.773c-.759-.687-2.257-1.25-3.33-1.25zM5.542 17.026l-.002-5.33c0-.973-.622-2.335-1.378-3.021L1.64 6.427V11.695c0 .976.622 2.332 1.381 3.02l2.52 2.311zM11.07 3.207L11.04 0 6.937 3.727c-.76.688-1.379 2.05-1.374 3.022l-.02 3.25 4.149-3.77c.76-.689 1.378-2.046 1.378-3.022zM36.359 17.804h-.294v.015l.294-.015z" fill="#F3942D"/></svg>